<svg width="864" height="418" viewBox="0 0 864 418" fill="none" xmlns="http://www.w3.org/2000/svg">
<path d="M286.594 118.934V196.172H253.254V118.934H219.161V92.3826H320.537V118.934H286.594ZM365.81 114.71C380.393 114.71 391.506 118.129 399.15 124.968C406.894 131.807 410.766 142.266 410.766 156.346V161.475H351.026C351.026 167.208 352.283 171.532 354.798 174.449C357.413 177.366 361.486 178.824 367.017 178.824C372.046 178.824 375.717 177.768 378.03 175.656C380.443 173.544 381.65 170.728 381.65 167.208H410.766C410.766 176.863 407.095 184.406 399.753 189.836C392.411 195.267 381.701 197.983 367.621 197.983C352.837 197.983 341.371 194.563 333.225 187.724C325.079 180.785 321.006 170.326 321.006 156.346C321.006 142.668 324.978 132.31 332.923 125.269C340.869 118.23 351.831 114.71 365.81 114.71ZM367.017 133.868C357.563 133.868 352.283 138.344 351.177 147.295H380.443C380.443 143.171 379.237 139.903 376.823 137.489C374.51 135.075 371.241 133.868 367.017 133.868ZM473.672 114.559C475.985 114.559 478.047 114.86 479.857 115.464C481.667 115.967 482.573 116.268 482.573 116.369V141.562H472.918C466.682 141.562 462.157 143.171 459.341 146.39C456.625 149.608 455.267 154.385 455.267 160.721V196.172H425.247V116.52H449.837L451.798 128.588C453.608 123.962 456.474 120.492 460.397 118.179C464.319 115.766 468.744 114.559 473.672 114.559ZM554.703 114.71C563.956 114.71 570.895 117.274 575.522 122.403C580.148 127.532 582.461 134.924 582.461 144.579V196.172H552.441V148.2C552.441 144.78 551.535 142.065 549.725 140.054C548.015 137.942 545.551 136.886 542.333 136.886C538.612 136.886 535.595 138.092 533.282 140.506C530.969 142.92 529.812 145.887 529.812 149.407V196.172H499.791V116.52H524.381L526.342 128.588C529.46 124.364 533.533 120.995 538.562 118.481C543.691 115.967 549.071 114.71 554.703 114.71ZM639.786 114.71C651.955 114.71 661.861 116.771 669.505 120.895C677.148 124.918 680.97 131.505 680.97 140.657V171.734C680.97 173.443 681.372 174.851 682.177 175.958C682.981 177.064 684.188 177.617 685.797 177.617H691.228V194.966C690.926 195.167 690.122 195.519 688.814 196.022C687.607 196.424 685.847 196.826 683.534 197.228C681.221 197.731 678.556 197.983 675.539 197.983C669.706 197.983 664.878 197.128 661.057 195.418C657.335 193.608 654.771 191.144 653.363 188.026C649.541 191.043 645.267 193.457 640.54 195.267C635.813 197.078 630.282 197.983 623.946 197.983C605.239 197.983 595.886 190.54 595.886 175.656C595.886 167.912 597.948 162.028 602.071 158.006C606.295 153.882 612.33 151.066 620.174 149.558C628.019 148.049 638.277 147.295 650.949 147.295V143.372C650.949 140.255 649.843 137.891 647.63 136.282C645.518 134.673 642.753 133.868 639.333 133.868C636.215 133.868 633.5 134.422 631.187 135.528C628.974 136.634 627.868 138.394 627.868 140.808V141.411H598.3C598.199 140.908 598.149 140.204 598.149 139.299C598.149 131.756 601.719 125.772 608.86 121.347C616.101 116.922 626.41 114.71 639.786 114.71ZM650.949 161.475C642.401 161.475 636.065 162.431 631.941 164.342C627.918 166.152 625.907 168.616 625.907 171.734C625.907 176.762 629.326 179.276 636.165 179.276C640.087 179.276 643.507 178.22 646.423 176.108C649.441 173.996 650.949 171.382 650.949 168.264V161.475ZM756.548 116.52H791.547L762.13 148.652L792.301 196.172H758.207L741.462 168.867L731.053 178.975V196.172H701.033V86.6501H731.053V146.993L756.548 116.52ZM277.091 218.383H310.43V295.622H363.683V322.172H277.091V218.383ZM394.758 233.167V212.801H424.779V233.167H394.758ZM394.758 322.172V242.52H424.779V322.172H394.758ZM516.954 240.71C526.206 240.71 533.146 243.274 537.772 248.403C542.398 253.532 544.712 260.924 544.712 270.579V322.172H514.691V274.2C514.691 270.78 513.786 268.065 511.976 266.054C510.266 263.942 507.802 262.886 504.584 262.886C500.862 262.886 497.845 264.092 495.532 266.506C493.219 268.92 492.062 271.887 492.062 275.407V322.172H462.042V242.52H486.632L488.593 254.588C491.71 250.364 495.784 246.995 500.812 244.481C505.941 241.967 511.322 240.71 516.954 240.71ZM638.543 322.172L636.582 310.104C633.465 314.428 629.341 317.848 624.212 320.362C619.183 322.776 613.853 323.983 608.221 323.983C598.969 323.983 592.029 321.418 587.403 316.289C582.777 311.16 580.463 303.768 580.463 294.113V242.52H610.484V290.492C610.484 293.912 611.339 296.678 613.049 298.79C614.859 300.801 617.373 301.807 620.591 301.807C624.313 301.807 627.33 300.6 629.643 298.186C631.956 295.772 633.113 292.806 633.113 289.286V242.52H663.133V322.172H638.543ZM790.305 322.172H755.306L740.22 297.13H739.617L724.38 322.172H691.041L721.665 279.932L694.058 242.52H729.358L742.03 263.64H742.634L755.306 242.52H788.494L760.435 280.687L790.305 322.172Z" fill="#151C18"/>
<g clip-path="url(#clip0_104_2)">
<path d="M62.1456 288.863C62.1481 288.86 62.1509 288.855 62.1509 288.855C63.6948 287.121 64.4302 283.906 65.2211 280.481C66.0099 277.059 66.8923 273.368 69.716 270.976C69.7213 270.97 69.7289 270.966 69.7338 270.96C70.2934 270.474 70.8683 270.065 71.4458 269.723C72.0255 269.381 72.6134 269.102 73.2007 268.882C69.2756 257.298 70.8147 245.763 74.7779 235.341C79.6392 222.547 88.1278 211.402 94.612 203.777C101.87 194.667 108.967 186.02 108.827 173.246C108.611 153.752 106.673 117.601 141.146 117.553C142.548 117.55 144.011 117.609 145.534 117.73C184.058 120.816 173.839 161.318 174.412 174.879C175.116 184.797 177.136 192.614 183.992 202.309C192.043 211.837 203.383 227.261 208.753 243.318C211.287 250.894 212.493 258.617 211.381 265.928C211.729 266.239 212.06 266.566 212.378 266.9C214.741 269.414 216.489 272.456 218.435 274.504C220.254 276.312 222.843 276.998 225.692 278.013C228.542 279.031 231.668 280.529 233.566 284.154L233.568 284.157C233.571 284.162 233.573 284.169 233.578 284.174C234.471 285.832 234.761 287.622 234.761 289.437C234.761 291.115 234.512 292.817 234.26 294.454C233.736 297.862 233.204 301.084 233.909 303.266C236.163 309.4 236.453 313.64 234.865 316.718C233.273 319.801 230.004 321.161 226.308 321.93C218.916 323.464 208.906 323.085 201.017 327.246L200.338 325.973L201.01 327.249C192.564 331.643 184.002 333.203 177.172 331.651C172.216 330.527 168.197 327.591 166.132 323.075C160.79 323.049 154.926 320.796 145.534 320.283C139.162 319.771 131.203 322.535 122.047 322.029C121.808 323.016 121.462 323.968 120.989 324.872C120.984 324.879 120.979 324.889 120.974 324.897C117.425 331.96 110.832 335.19 103.803 334.638C96.7669 334.086 89.2855 329.957 83.2361 322.796L84.3452 321.87L83.2282 322.786C77.4639 315.83 67.8966 312.946 61.5498 309.139C58.3777 307.236 55.8059 304.851 55.6049 301.388C55.407 297.928 57.4497 294.049 62.1456 288.863Z" fill="black"/>
<path d="M58.5002 301.223C58.6223 303.36 60.1766 304.947 63.0485 306.668C68.7876 310.114 78.9603 313.111 85.4544 320.941C91.0969 327.621 97.9753 331.289 104.032 331.765C110.088 332.241 115.314 329.74 118.397 323.586L118.402 323.573L118.41 323.558C120.323 319.938 119.527 314.23 117.916 308.205C116.306 302.183 113.991 295.996 113.681 290.971V290.956C113.356 284.516 112.991 278.891 111.906 274.55C110.817 270.208 109.105 267.272 106.072 265.619C105.93 265.543 105.79 265.47 105.65 265.401C105.307 270.978 102.531 276.669 97.6271 277.899C92.2594 279.307 84.5237 274.725 81.2574 270.986C80.6039 270.96 79.9679 270.927 79.3495 270.912C76.4827 270.844 74.0813 271.008 71.624 273.145L71.6166 273.152L71.609 273.158C69.7215 274.75 68.8235 277.757 68.0451 281.124C67.2664 284.493 66.646 288.161 64.3105 290.776L64.308 290.779L64.3054 290.784C59.8179 295.738 58.3756 299.084 58.5002 301.223Z" fill="#D6A312"/>
<path d="M167.566 317.015L167.569 317.03V317.047C168.088 323.816 171.924 327.502 177.815 328.841C183.701 330.18 191.687 328.847 199.659 324.697C199.661 324.697 199.664 324.695 199.666 324.695C208.488 320.045 218.982 320.508 225.715 319.108C229.081 318.409 231.278 317.356 232.286 315.402C233.293 313.445 233.316 310.035 231.174 304.221L231.164 304.195L231.156 304.17C230.096 300.917 230.882 297.358 231.395 294.016C231.909 290.678 232.161 287.638 231.014 285.521L231.004 285.501C229.536 282.686 227.384 281.678 224.713 280.727C222.039 279.772 218.872 279.023 216.372 276.527L216.356 276.514L216.344 276.502C214.031 274.074 212.294 271.029 210.261 268.87C208.547 267.047 206.83 265.839 204.243 265.822C204.212 265.825 204.184 265.825 204.154 265.822C203.701 265.825 203.22 265.862 202.711 265.941C199.277 266.457 196.283 268.847 193.399 272.74L185.07 287.845L185.068 287.853L185.062 287.858C182.847 292.462 178.166 297.528 174.2 302.694C170.235 307.858 167.167 313.045 167.566 317.015Z" fill="#D6A312"/>
<path d="M126.031 176.202C126.7 174.899 128.066 173.658 130.391 172.709L130.396 172.707L130.404 172.704C135.239 170.644 137.338 170.497 140.037 168.75C144.43 165.94 148.06 164.955 151.077 164.968C152.657 164.973 154.069 165.252 155.333 165.687C159.009 166.945 161.448 169.57 162.977 171.011L162.98 171.013C162.98 171.016 162.982 171.016 162.982 171.018C163.282 171.302 163.669 171.56 164.605 172.243C165.549 172.929 166.963 173.962 168.998 175.481C170.807 176.83 171.395 178.587 170.769 180.645C170.146 182.703 168.151 185.078 164.503 187.131L164.498 187.136L164.491 187.138C162.227 188.462 160.68 190.247 158.904 191.667C158.017 192.376 157.083 193.008 155.959 193.487C154.834 193.965 153.522 194.289 151.878 194.386C148.022 194.608 145.183 193.456 142.677 192.029C140.167 190.604 138.04 188.859 135.601 188.072L135.596 188.07L135.59 188.067C130.589 186.513 127.023 183.382 125.906 180.407C125.346 178.919 125.364 177.506 126.031 176.202Z" fill="#D6A312"/>
<path d="M138.719 183.549C142.698 185.613 147.345 188.115 152.291 188.115C157.233 188.115 161.138 185.842 163.946 183.627C165.351 182.521 166.49 181.42 167.35 180.62C168.842 179.448 168.663 177.805 168.05 177.853C167.023 177.981 166.867 179.327 166.22 179.929C165.345 180.744 164.249 181.8 162.921 182.848C160.265 184.941 156.724 186.979 152.291 186.979C147.864 186.979 142.697 184.393 139.544 182.632C137.757 181.635 135.483 179.847 133.627 178.492C132.208 177.455 132.26 176.206 131.087 176.342C129.915 176.478 130.782 177.724 132.424 179.15C134.065 180.575 136.633 182.467 138.719 183.549V183.549Z" fill="#202020"/>
<path d="M77.795 268.037C78.347 268.017 78.8914 268.019 79.4205 268.032C79.4689 268.034 79.5172 268.034 79.5681 268.034C78.202 263.741 81.2241 260.574 89.2778 256.949C97.6291 253.294 104.284 253.656 105.408 261.073C105.479 261.46 105.538 261.858 105.581 262.258C106.207 262.475 106.833 262.749 107.464 263.09C111.384 265.227 113.525 269.1 114.716 273.854C115.904 278.603 116.247 284.342 116.573 290.794C116.573 290.797 116.573 290.797 116.573 290.799C116.774 294.042 118.117 298.432 119.475 303.079C133.156 312.792 152.143 316.999 168.266 306.049C169.357 304.33 170.611 302.626 171.901 300.945C172.725 299.872 173.572 298.806 174.412 297.753C172.758 297.756 171.351 297.485 170.214 296.974C168.8 296.333 167.808 295.311 167.314 293.994C166.332 291.364 167.319 287.653 170.466 283.413C173.613 279.175 178.942 274.393 186.772 269.614C186.772 269.614 186.772 269.614 186.772 269.612C192.526 266.05 195.741 261.686 197.247 256.947C198.756 252.206 198.545 247.08 197.382 242.019C195.154 232.306 189.43 222.859 185.777 216.931C184.795 216.212 185.426 218.267 189.476 225.75C193.104 232.59 199.888 248.376 190.6 260.699C190.351 251.93 188.247 242.986 184.714 234.62C179.568 223.014 168.805 202.881 167.95 186.837C167.508 187.156 165.994 188.174 165.32 188.556C165.317 188.559 165.317 188.559 165.315 188.559C163.341 189.716 161.858 191.407 159.937 192.943C158.012 194.482 155.608 195.811 151.975 196.021C151.627 196.042 151.286 196.052 150.953 196.052C147.208 196.052 144.288 194.837 141.856 193.452C139.213 191.948 137.101 190.283 135.099 189.635C135.097 189.632 135.094 189.632 135.092 189.632C130.861 188.316 127.501 185.987 125.588 183.273C122.302 196.163 114.66 214.782 109.748 223.867C107.135 228.686 101.941 238.929 99.697 251.269C98.275 251.226 96.708 251.431 95.0317 251.859C89.1631 236.718 100.007 220.414 104.968 215.872C106.97 213.938 107.066 213.073 106.072 213.113C100.694 217.849 93.6303 227.37 91.0607 238.118C89.8883 243.019 89.6388 248.173 90.8957 253.259C90.2826 253.512 89.6568 253.788 89.0234 254.087C79.6037 258.65 76.1212 262.62 77.795 268.037Z" fill="white"/>
<path d="M125.588 161.353C125.568 163.908 126.011 166.082 126.985 168.302C127.539 169.568 128.178 170.631 128.943 171.552C129.203 171.428 129.472 171.309 129.752 171.196C130.722 170.783 131.579 170.444 132.347 170.155C133.115 169.867 133.715 169.669 134.333 169.457C133.885 168.918 133.003 168.282 132.675 167.485C132.176 166.282 131.932 165.108 131.886 163.708C131.886 163.652 131.868 163.604 131.868 163.538C131.84 162.197 132.018 161.05 132.413 159.875C132.825 158.643 133.349 157.757 134.107 157.02C134.867 156.283 135.625 155.949 136.536 155.919C136.579 155.916 136.62 155.916 136.663 155.916C137.518 155.919 138.261 156.212 139.029 156.85C139.836 157.521 140.433 158.379 140.932 159.574C141.428 160.769 141.672 161.954 141.721 163.361C141.728 163.417 141.728 163.465 141.728 163.521C141.746 164.295 141.695 165.004 141.575 165.693C143.325 164.824 145.565 164.191 147.111 163.824C147.2 163.158 147.251 162.472 147.266 161.753V161.559C147.294 159.012 146.875 156.827 145.89 154.61C144.906 152.39 143.687 150.795 141.973 149.496C140.256 148.2 138.569 147.605 136.572 147.585H136.478C134.525 147.585 132.853 148.157 131.136 149.395C129.394 150.656 128.137 152.23 127.125 154.433C126.133 156.579 125.654 158.678 125.606 161.166C125.606 161.232 125.606 161.288 125.588 161.353V161.353Z" fill="white"/>
<path d="M155.117 163.898C155.374 163.971 155.623 164.05 155.87 164.133C157.269 164.614 158.38 165.145 159.453 165.851C159.349 165.112 159.333 164.363 159.415 163.525C159.423 163.479 159.423 163.441 159.423 163.396C159.534 162.284 159.771 161.353 160.165 160.411C160.585 159.431 161.056 158.74 161.674 158.209C162.233 157.728 162.763 157.505 163.348 157.51C163.406 157.51 163.467 157.513 163.528 157.518C164.185 157.573 164.729 157.892 165.245 158.518C165.759 159.14 166.097 159.915 166.342 160.943C166.586 161.968 166.649 162.975 166.548 164.132C166.548 164.178 166.538 164.216 166.538 164.261C166.426 165.383 166.199 166.314 165.797 167.256C165.385 168.226 164.907 168.917 164.289 169.448C164.185 169.537 164.083 169.618 163.981 169.689C164.622 170.182 165.053 170.532 165.582 170.917C165.92 171.163 166.322 171.456 166.79 171.801C167.81 170.849 168.606 169.654 169.303 168.077C170.128 166.214 170.568 164.348 170.7 162.146V162.128C170.822 159.926 170.606 158.032 169.998 156.073C169.387 154.114 168.573 152.696 167.391 151.532C166.21 150.365 165.02 149.778 163.585 149.704C163.473 149.699 163.364 149.697 163.254 149.697C161.954 149.699 160.794 150.129 159.594 151.084C158.291 152.119 157.307 153.443 156.483 155.309C155.656 157.174 155.216 159.04 155.094 161.242V161.26C155.035 162.184 155.043 163.055 155.117 163.898V163.898Z" fill="white"/>
<path d="M148.59 169.165C148.426 169.691 147.574 169.604 147.083 169.856C146.651 170.077 146.304 170.562 145.819 170.576C145.356 170.589 144.635 170.416 144.575 169.959C144.495 169.355 145.381 168.972 145.952 168.75C146.685 168.466 147.626 168.321 148.314 168.702C148.472 168.789 148.644 168.994 148.59 169.165V169.165Z" fill="#202020"/>
<path d="M153.618 169.165C153.782 169.691 154.633 169.604 155.125 169.856C155.557 170.077 155.904 170.562 156.389 170.576C156.852 170.589 157.573 170.416 157.633 169.959C157.713 169.355 156.826 168.972 156.256 168.75C155.522 168.466 154.582 168.321 153.894 168.702C153.736 168.789 153.564 168.994 153.618 169.165V169.165Z" fill="#202020"/>
</g>
<path d="M207.999 144.437H80.3247L141.935 82L207.999 144.437Z" fill="#D6A312" stroke="black" stroke-width="2.96917" stroke-linejoin="round"/>
<defs>
<clipPath id="clip0_104_2">
<rect width="181.12" height="217.7" fill="white" transform="matrix(-1 0 0 1 236.119 117.3)"/>
</clipPath>
</defs>
</svg>
