<svg width="864" height="418" viewBox="0 0 864 418" fill="none" xmlns="http://www.w3.org/2000/svg">
<path d="M283.272 119.237V200.578H248.161V119.237H212.257V91.2757H319.018V119.237H283.272ZM366.696 114.788C382.053 114.788 393.757 118.39 401.806 125.592C409.962 132.794 414.039 143.809 414.039 158.637V164.038H351.127C351.127 170.075 352.451 174.63 355.098 177.701C357.852 180.773 362.142 182.308 367.967 182.308C373.263 182.308 377.128 181.196 379.564 178.972C382.106 176.748 383.377 173.782 383.377 170.075H414.039C414.039 180.243 410.173 188.186 402.442 193.906C394.71 199.625 383.43 202.485 368.602 202.485C353.033 202.485 340.959 198.884 332.38 191.682C323.801 184.374 319.512 173.359 319.512 158.637C319.512 144.232 323.695 133.323 332.062 125.909C340.429 118.495 351.974 114.788 366.696 114.788ZM367.967 134.965C358.011 134.965 352.451 139.678 351.286 149.104H382.106C382.106 144.762 380.835 141.32 378.294 138.778C375.858 136.236 372.415 134.965 367.967 134.965ZM480.287 114.63C482.723 114.63 484.894 114.947 486.801 115.583C488.707 116.112 489.66 116.43 489.66 116.536V143.067H479.493C472.926 143.067 468.16 144.762 465.194 148.151C462.335 151.54 460.905 156.571 460.905 163.244V200.578H429.29V116.695H455.185L457.251 129.405C459.157 124.533 462.176 120.878 466.306 118.442C470.437 115.901 475.097 114.63 480.287 114.63ZM565.623 114.788C575.367 114.788 582.675 117.489 587.547 122.891C592.419 128.292 594.855 136.077 594.855 146.245V200.578H563.24V150.058C563.24 146.457 562.286 143.597 560.38 141.479C558.579 139.254 555.984 138.142 552.595 138.142C548.676 138.142 545.499 139.413 543.063 141.955C540.627 144.497 539.409 147.622 539.409 151.329V200.578H507.794V116.695H533.69L535.755 129.405C539.038 124.956 543.328 121.408 548.623 118.76C554.025 116.112 559.691 114.788 565.623 114.788ZM655.224 114.788C668.04 114.788 678.472 116.96 686.522 121.302C694.571 125.539 698.596 132.476 698.596 142.114V174.841C698.596 176.642 699.019 178.125 699.867 179.29C700.714 180.455 701.985 181.037 703.68 181.037H709.399V199.307C709.081 199.519 708.234 199.89 706.857 200.419C705.586 200.843 703.733 201.267 701.296 201.69C698.86 202.22 696.054 202.485 692.876 202.485C686.733 202.485 681.65 201.585 677.625 199.784C673.706 197.878 671.005 195.283 669.522 191.999C665.498 195.177 660.996 197.719 656.018 199.625C651.041 201.532 645.215 202.485 638.543 202.485C618.843 202.485 608.993 194.647 608.993 178.972C608.993 170.817 611.164 164.621 615.507 160.384C619.955 156.042 626.31 153.076 634.571 151.487C642.832 149.899 653.635 149.104 666.981 149.104V144.974C666.981 141.69 665.815 139.202 663.485 137.507C661.261 135.812 658.349 134.965 654.748 134.965C651.464 134.965 648.605 135.548 646.169 136.713C643.838 137.878 642.673 139.731 642.673 142.273V142.908H611.535C611.429 142.379 611.376 141.638 611.376 140.684C611.376 132.741 615.136 126.439 622.656 121.779C630.282 117.119 641.138 114.788 655.224 114.788ZM666.981 164.038C657.978 164.038 651.305 165.044 646.963 167.057C642.726 168.963 640.608 171.558 640.608 174.841C640.608 180.137 644.209 182.785 651.411 182.785C655.542 182.785 659.143 181.673 662.214 179.449C665.392 177.224 666.981 174.471 666.981 171.187V164.038ZM778.188 116.695H815.046L784.067 150.534L815.841 200.578H779.936L762.301 171.823L751.339 182.467V200.578H719.724V85.2386H751.339V148.787L778.188 116.695ZM273.264 224.276H308.375V305.617H364.456V333.578H273.264V224.276ZM397.182 239.845V218.397H428.797V239.845H397.182ZM397.182 333.578V249.695H428.797V333.578H397.182ZM525.868 247.788C535.612 247.788 542.92 250.489 547.792 255.891C552.664 261.292 555.1 269.077 555.1 279.245V333.578H523.485V283.058C523.485 279.457 522.532 276.597 520.625 274.479C518.825 272.254 516.23 271.142 512.84 271.142C508.922 271.142 505.744 272.413 503.308 274.955C500.872 277.497 499.654 280.622 499.654 284.329V333.578H468.039V249.695H493.935L496 262.405C499.284 257.956 503.573 254.408 508.869 251.76C514.27 249.112 519.937 247.788 525.868 247.788ZM653.916 333.578L651.851 320.869C648.567 325.423 644.225 329.024 638.823 331.672C633.528 334.214 627.914 335.485 621.983 335.485C612.239 335.485 604.931 332.784 600.059 327.382C595.187 321.981 592.751 314.196 592.751 304.029V249.695H624.366V300.216C624.366 303.817 625.266 306.729 627.067 308.953C628.973 311.072 631.621 312.131 635.01 312.131C638.929 312.131 642.107 310.86 644.543 308.318C646.979 305.776 648.197 302.652 648.197 298.945V249.695H679.812V333.578H653.916ZM813.738 333.578H776.88L760.993 307.206H760.358L744.312 333.578H709.202L741.452 289.095L712.379 249.695H749.555L762.9 271.937H763.535L776.88 249.695H811.832L782.282 289.889L813.738 333.578Z" fill="white"/>
<mask id="path-2-outside-1_107_38" maskUnits="userSpaceOnUse" x="34.8492" y="112.785" width="200" height="239" fill="black">
<rect fill="white" x="34.8492" y="112.785" width="200" height="239"/>
<path d="M46.9018 298.194C46.9045 298.192 46.9074 298.186 46.9074 298.186C48.5333 296.36 49.3077 292.975 50.1406 289.368C50.9714 285.763 51.9007 281.877 54.8743 279.357C54.8799 279.352 54.888 279.347 54.893 279.341C55.4824 278.829 56.0879 278.398 56.696 278.037C57.3065 277.678 57.9256 277.384 58.5442 277.152C54.4106 264.953 56.0313 252.805 60.2051 241.83C65.3246 228.357 74.2641 216.619 81.0927 208.589C88.7357 198.995 96.2102 189.888 96.0626 176.437C95.8352 155.907 93.7938 117.836 130.099 117.785C131.575 117.782 133.115 117.844 134.72 117.972C175.29 121.221 164.528 163.875 165.131 178.156C165.873 188.601 168 196.833 175.22 207.043C183.699 217.078 195.641 233.321 201.297 250.23C203.965 258.209 205.235 266.342 204.064 274.041C204.431 274.369 204.779 274.713 205.114 275.065C207.603 277.712 209.443 280.917 211.493 283.073C213.408 284.977 216.135 285.699 219.136 286.768C222.136 287.84 225.429 289.418 227.427 293.235L227.43 293.238C227.432 293.244 227.435 293.252 227.44 293.257C228.381 295.003 228.686 296.888 228.686 298.799C228.686 300.567 228.424 302.358 228.158 304.083C227.607 307.671 227.047 311.064 227.789 313.363C230.162 319.822 230.468 324.287 228.796 327.529C227.119 330.776 223.677 332.208 219.784 333.018C211.999 334.634 201.457 334.234 193.15 338.617L192.435 337.276L193.142 338.619C184.248 343.247 175.231 344.89 168.038 343.255C162.819 342.072 158.586 338.98 156.411 334.223C150.785 334.197 144.611 331.824 134.72 331.283C128.009 330.744 119.627 333.656 109.985 333.122C109.733 334.162 109.369 335.164 108.871 336.116C108.865 336.124 108.86 336.134 108.855 336.143C105.118 343.581 98.1739 346.982 90.7717 346.401C83.3621 345.82 75.4833 341.472 69.1126 333.93L70.2806 332.954L69.1043 333.919C63.0338 326.594 52.9583 323.557 46.2744 319.548C42.9338 317.543 40.2254 315.032 40.0137 311.385C39.8053 307.741 41.9565 303.657 46.9018 298.194Z"/>
</mask>
<path d="M46.9018 298.194C46.9045 298.192 46.9074 298.186 46.9074 298.186C48.5333 296.36 49.3077 292.975 50.1406 289.368C50.9714 285.763 51.9007 281.877 54.8743 279.357C54.8799 279.352 54.888 279.347 54.893 279.341C55.4824 278.829 56.0879 278.398 56.696 278.037C57.3065 277.678 57.9256 277.384 58.5442 277.152C54.4106 264.953 56.0313 252.805 60.2051 241.83C65.3246 228.357 74.2641 216.619 81.0927 208.589C88.7357 198.995 96.2102 189.888 96.0626 176.437C95.8352 155.907 93.7938 117.836 130.099 117.785C131.575 117.782 133.115 117.844 134.72 117.972C175.29 121.221 164.528 163.875 165.131 178.156C165.873 188.601 168 196.833 175.22 207.043C183.699 217.078 195.641 233.321 201.297 250.23C203.965 258.209 205.235 266.342 204.064 274.041C204.431 274.369 204.779 274.713 205.114 275.065C207.603 277.712 209.443 280.917 211.493 283.073C213.408 284.977 216.135 285.699 219.136 286.768C222.136 287.84 225.429 289.418 227.427 293.235L227.43 293.238C227.432 293.244 227.435 293.252 227.44 293.257C228.381 295.003 228.686 296.888 228.686 298.799C228.686 300.567 228.424 302.358 228.158 304.083C227.607 307.671 227.047 311.064 227.789 313.363C230.162 319.822 230.468 324.287 228.796 327.529C227.119 330.776 223.677 332.208 219.784 333.018C211.999 334.634 201.457 334.234 193.15 338.617L192.435 337.276L193.142 338.619C184.248 343.247 175.231 344.89 168.038 343.255C162.819 342.072 158.586 338.98 156.411 334.223C150.785 334.197 144.611 331.824 134.72 331.283C128.009 330.744 119.627 333.656 109.985 333.122C109.733 334.162 109.369 335.164 108.871 336.116C108.865 336.124 108.86 336.134 108.855 336.143C105.118 343.581 98.1739 346.982 90.7717 346.401C83.3621 345.82 75.4833 341.472 69.1126 333.93L70.2806 332.954L69.1043 333.919C63.0338 326.594 52.9583 323.557 46.2744 319.548C42.9338 317.543 40.2254 315.032 40.0137 311.385C39.8053 307.741 41.9565 303.657 46.9018 298.194Z" fill="black"/>
<path d="M46.9018 298.194L43.2214 294.862L43.3082 294.766L43.3998 294.675L46.9018 298.194ZM46.9074 298.186L42.5622 295.785L42.8305 295.299L43.1994 294.885L46.9074 298.186ZM50.1406 289.368L54.9785 290.483L54.978 290.485L50.1406 289.368ZM54.8743 279.357L58.3763 282.876L58.2353 283.017L58.0835 283.145L54.8743 279.357ZM54.893 279.341L51.2197 276.001L51.4166 275.785L51.6377 275.593L54.893 279.341ZM56.696 278.037L54.166 273.766L54.1748 273.761L56.696 278.037ZM58.5442 277.152L63.2463 275.559L64.7893 280.113L60.2872 281.801L58.5442 277.152ZM60.2051 241.83L64.8461 243.593L64.8456 243.594L60.2051 241.83ZM81.0927 208.589L84.9759 211.683L84.9263 211.745L84.8747 211.806L81.0927 208.589ZM96.0626 176.437L101.027 176.382L101.027 176.382L96.0626 176.437ZM130.099 117.785L130.108 122.75L130.106 122.75L130.099 117.785ZM134.72 117.972L135.115 113.023L135.116 113.023L134.72 117.972ZM165.131 178.156L160.179 178.508L160.174 178.437L160.171 178.365L165.131 178.156ZM175.22 207.043L171.428 210.248L171.29 210.084L171.166 209.91L175.22 207.043ZM201.297 250.23L206.005 248.655L206.005 248.656L201.297 250.23ZM204.064 274.041L200.756 277.744L198.752 275.953L199.156 273.295L204.064 274.041ZM205.114 275.065L208.711 271.643L208.721 271.654L208.731 271.665L205.114 275.065ZM211.493 283.073L207.993 286.595L207.943 286.545L207.894 286.493L211.493 283.073ZM219.136 286.768L220.802 282.091L220.806 282.093L219.136 286.768ZM227.427 293.235L223.753 296.574L223.324 296.103L223.029 295.538L227.427 293.235ZM227.43 293.238L231.104 289.9L231.561 290.403L231.866 291.009L227.43 293.238ZM227.44 293.257L230.851 289.649L231.432 290.199L231.812 290.903L227.44 293.257ZM228.158 304.083L233.065 304.838L233.065 304.838L228.158 304.083ZM227.789 313.363L223.129 315.075L223.095 314.982L223.064 314.888L227.789 313.363ZM228.796 327.529L233.209 329.805L233.207 329.808L228.796 327.529ZM219.784 333.018L220.796 337.879L220.793 337.879L219.784 333.018ZM193.15 338.617L195.467 343.008L191.096 345.314L188.77 340.953L193.15 338.617ZM192.435 337.276L188.042 339.588L196.815 334.939L192.435 337.276ZM193.142 338.619L197.535 336.307L199.859 340.721L195.434 343.023L193.142 338.619ZM168.038 343.255L169.136 338.414L169.138 338.414L168.038 343.255ZM156.411 334.223L156.435 329.259L159.607 329.274L160.926 332.158L156.411 334.223ZM134.72 331.283L134.449 336.24L134.386 336.237L134.323 336.232L134.72 331.283ZM109.985 333.122L105.16 331.954L106.133 327.937L110.259 328.165L109.985 333.122ZM108.871 336.116L113.27 338.418L113.1 338.742L112.885 339.037L108.871 336.116ZM108.855 336.143L104.418 333.914L104.566 333.62L104.751 333.349L108.855 336.143ZM90.7717 346.401L91.1601 341.451L91.1603 341.452L90.7717 346.401ZM69.1126 333.93L65.3199 337.134L62.0984 333.32L65.9297 330.12L69.1126 333.93ZM70.2806 332.954L67.1317 329.116L73.4634 336.765L70.2806 332.954ZM69.1043 333.919L72.2531 337.758L68.4337 340.891L65.2815 337.087L69.1043 333.919ZM46.2744 319.548L43.7205 323.805L43.7197 323.805L46.2744 319.548ZM40.0137 311.385L35.0574 311.673L35.0571 311.668L40.0137 311.385ZM43.3998 294.675C42.9984 295.075 42.7605 295.456 42.7302 295.503C42.6865 295.571 42.6515 295.629 42.6263 295.672C42.6132 295.695 42.6014 295.715 42.5909 295.734C42.5856 295.743 42.5806 295.752 42.5758 295.76C42.5734 295.765 42.5711 295.769 42.5688 295.773C42.5677 295.775 42.5666 295.777 42.5655 295.779C42.5649 295.78 42.5643 295.781 42.5638 295.782C42.5635 295.782 42.5632 295.783 42.563 295.783C42.5628 295.784 42.5626 295.784 42.5626 295.784C42.5624 295.784 42.5622 295.785 46.9074 298.186C51.2527 300.588 51.2525 300.588 51.2523 300.588C51.2522 300.589 51.252 300.589 51.2519 300.589C51.2516 300.59 51.2513 300.59 51.251 300.591C51.2505 300.592 51.2499 300.593 51.2494 300.594C51.2483 300.596 51.2471 300.598 51.246 300.6C51.2437 300.604 51.2414 300.608 51.239 300.612C51.2341 300.621 51.229 300.63 51.2237 300.639C51.213 300.658 51.2009 300.679 51.1875 300.702C51.1618 300.746 51.1258 300.806 51.081 300.875C51.0486 300.926 50.8079 301.311 50.4038 301.713L43.3998 294.675ZM43.1994 294.885C43.3286 294.74 43.6713 294.215 44.1045 292.896C44.5213 291.626 44.8726 290.115 45.3032 288.251L54.978 290.485C54.5757 292.227 54.1234 294.212 53.5383 295.994C52.9696 297.725 52.1121 299.807 50.6154 301.488L43.1994 294.885ZM45.3028 288.253C46.0635 284.952 47.2306 279.326 51.6651 275.569L58.0835 283.145C56.5708 284.427 55.8792 286.575 54.9785 290.483L45.3028 288.253ZM51.3723 275.838C51.4485 275.762 51.5166 275.699 51.5708 275.651C51.6249 275.603 51.6713 275.564 51.7045 275.536C51.7374 275.509 51.7639 275.487 51.7768 275.477C51.7835 275.472 51.7888 275.467 51.7906 275.466C51.795 275.462 51.7904 275.466 51.7898 275.467C51.786 275.47 51.7674 275.484 51.7436 275.504C51.7191 275.524 51.6813 275.555 51.6357 275.595C51.5902 275.634 51.5305 275.687 51.4623 275.753C51.3943 275.817 51.311 275.901 51.2197 276.001L58.5664 282.681C58.4738 282.783 58.3891 282.867 58.3197 282.934C58.2501 283 58.1889 283.055 58.1418 283.096C58.0947 283.136 58.0552 283.169 58.0292 283.19C58.0037 283.211 57.9834 283.227 57.9779 283.232C57.9639 283.243 57.9803 283.23 57.9859 283.225C57.9972 283.216 58.022 283.196 58.0533 283.17C58.1105 283.123 58.2324 283.02 58.3763 282.876L51.3723 275.838ZM51.6377 275.593C52.4555 274.882 53.3041 274.276 54.166 273.766L59.2259 282.309C58.8716 282.519 58.5094 282.776 58.1484 283.089L51.6377 275.593ZM54.1748 273.761C55.0343 273.254 55.9138 272.836 56.8012 272.504L60.2872 281.801C59.9374 281.932 59.5787 282.101 59.2171 282.314L54.1748 273.761ZM53.8421 278.746C49.232 265.141 51.1164 251.762 55.5646 240.065L64.8456 243.594C60.9462 253.848 59.5891 264.766 63.2463 275.559L53.8421 278.746ZM55.5642 240.066C60.9896 225.788 70.3732 213.531 77.3108 205.373L84.8747 211.806C78.1551 219.707 69.6595 230.925 64.8461 243.593L55.5642 240.066ZM77.2095 205.496C85.0419 195.664 91.2235 187.906 91.0982 176.491L101.027 176.382C101.197 191.871 92.4296 202.326 84.9759 211.683L77.2095 205.496ZM91.0982 176.492C90.9882 166.56 90.3479 150.93 94.6675 137.872C96.87 131.214 100.46 124.866 106.346 120.195C112.283 115.483 120.105 112.834 130.092 112.82L130.106 122.75C121.94 122.761 116.403 124.89 112.519 127.973C108.584 131.095 105.891 135.558 104.095 140.99C100.415 152.112 100.91 165.783 101.027 176.382L91.0982 176.492ZM130.09 112.82C131.709 112.817 133.385 112.885 135.115 113.023L134.325 122.921C132.846 122.803 131.44 122.747 130.108 122.75L130.09 112.82ZM135.116 113.023C146.178 113.909 154.301 117.548 160.003 123.218C165.647 128.829 168.446 135.961 169.79 142.995C171.13 150.008 171.085 157.249 170.789 163.422C170.475 169.977 169.953 174.66 170.091 177.947L160.171 178.365C160.008 174.512 160.605 168.507 160.871 162.947C161.156 157.004 161.153 150.701 160.037 144.859C158.924 139.038 156.769 134.005 153.002 130.259C149.292 126.57 143.546 123.659 134.323 122.92L135.116 113.023ZM170.083 177.804C170.774 187.526 172.673 194.842 179.274 204.177L171.166 209.91C163.327 198.824 160.972 189.676 160.179 178.508L170.083 177.804ZM179.012 203.839C187.612 214.017 200.047 230.84 206.005 248.655L196.588 251.805C191.236 235.801 179.785 220.138 171.428 210.248L179.012 203.839ZM206.005 248.656C208.83 257.103 210.299 266.064 208.972 274.788L199.156 273.295C200.171 266.62 199.1 259.315 196.588 251.805L206.005 248.656ZM207.372 270.339C207.861 270.776 208.306 271.218 208.711 271.643L201.518 278.488C201.252 278.209 201.001 277.962 200.756 277.744L207.372 270.339ZM208.731 271.665C210.212 273.24 211.46 274.938 212.472 276.318C213.563 277.806 214.333 278.854 215.092 279.653L207.894 286.493C206.604 285.135 205.428 283.503 204.464 282.188C203.421 280.766 202.505 279.538 201.497 278.466L208.731 271.665ZM214.992 279.552C215.33 279.887 215.858 280.242 216.853 280.666C217.968 281.141 219.043 281.465 220.802 282.091L217.47 291.445C216.228 291.003 214.439 290.431 212.962 289.801C211.364 289.121 209.571 288.163 207.993 286.595L214.992 279.552ZM220.806 282.093C224.154 283.289 228.94 285.421 231.825 290.933L223.029 295.538C221.917 293.415 220.118 292.391 217.465 291.443L220.806 282.093ZM231.101 289.897L231.104 289.9L223.755 296.577L223.753 296.574L231.101 289.897ZM231.866 291.009C231.925 291.126 231.975 291.241 231.958 291.202C231.957 291.2 231.946 291.175 231.931 291.144C231.915 291.111 231.891 291.06 231.861 291C231.764 290.809 231.458 290.223 230.851 289.649L224.03 296.865C223.417 296.286 223.108 295.693 223.007 295.496C222.949 295.381 222.906 295.284 222.906 295.284C222.887 295.242 222.936 295.353 222.994 295.467L231.866 291.009ZM231.812 290.903C233.264 293.599 233.651 296.369 233.651 298.799H223.721C223.721 297.406 223.498 296.407 223.069 295.611L231.812 290.903ZM233.651 298.799C233.651 300.998 233.326 303.145 233.065 304.838L223.251 303.328C223.521 301.572 223.721 300.135 223.721 298.799H233.651ZM233.065 304.838C232.778 306.709 232.538 308.228 232.44 309.57C232.338 310.96 232.441 311.612 232.513 311.837L223.064 314.888C222.395 312.815 222.407 310.621 222.537 308.843C222.671 307.017 222.987 305.045 223.251 303.328L233.065 304.838ZM232.449 311.65C234.923 318.385 235.889 324.607 233.209 329.805L224.383 325.254C225.046 323.968 225.401 321.26 223.129 315.075L232.449 311.65ZM233.207 329.808C230.438 335.17 224.981 337.008 220.796 337.879L218.772 328.158C222.372 327.408 223.8 326.383 224.385 325.251L233.207 329.808ZM220.793 337.879C216.739 338.721 211.432 339.126 207.35 339.697C202.867 340.324 198.845 341.226 195.467 343.008L190.833 334.226C195.763 331.625 201.165 330.536 205.975 329.863C211.188 329.134 215.044 328.931 218.775 328.157L220.793 337.879ZM188.77 340.953L188.054 339.612L196.815 334.939L197.531 336.28L188.77 340.953ZM196.828 334.963L197.535 336.307L188.749 340.932L188.042 339.588L196.828 334.963ZM195.434 343.023C185.857 348.006 175.62 350.069 166.938 348.097L169.138 338.414C174.842 339.71 182.639 338.488 190.85 334.215L195.434 343.023ZM166.94 348.097C160.432 346.621 154.804 342.646 151.896 336.288L160.926 332.158C162.369 335.313 165.206 337.522 169.136 338.414L166.94 348.097ZM156.388 339.188C153.011 339.172 149.539 338.453 146.235 337.823C142.796 337.167 139.048 336.492 134.449 336.24L134.991 326.326C140.282 326.615 144.567 327.397 148.095 328.069C151.757 328.768 154.185 329.248 156.435 329.259L156.388 339.188ZM134.323 336.232C131.651 336.017 128.525 336.488 124.157 337.115C120.014 337.709 115.073 338.376 109.711 338.079L110.259 328.165C114.539 328.402 118.61 327.88 122.747 327.286C126.657 326.725 131.078 326.01 135.117 326.334L134.323 336.232ZM114.81 334.291C114.472 335.689 113.972 337.076 113.27 338.418L104.472 333.814C104.766 333.253 104.995 332.635 105.16 331.954L114.81 334.291ZM112.885 339.037C112.939 338.963 112.984 338.898 113.018 338.845C113.053 338.792 113.081 338.746 113.103 338.712C113.124 338.678 113.14 338.649 113.151 338.632C113.161 338.614 113.168 338.601 113.169 338.599C113.17 338.598 113.17 338.598 113.17 338.598C113.17 338.598 113.17 338.598 113.17 338.598C113.17 338.598 113.17 338.598 113.17 338.599C113.17 338.599 113.169 338.599 113.169 338.6C113.168 338.602 113.165 338.606 113.162 338.612C113.156 338.623 113.144 338.644 113.128 338.67C113.112 338.697 113.09 338.734 113.063 338.777C113.036 338.82 113.001 338.875 112.959 338.937L104.751 333.349C104.672 333.464 104.615 333.558 104.589 333.602C104.575 333.626 104.564 333.645 104.559 333.654C104.556 333.659 104.55 333.67 104.556 333.659C104.558 333.655 104.567 333.639 104.579 333.62C104.591 333.6 104.609 333.569 104.631 333.533C104.653 333.496 104.683 333.448 104.719 333.393C104.755 333.339 104.801 333.271 104.857 333.195L112.885 339.037ZM113.291 338.372C108.599 347.71 99.6861 352.081 90.3831 351.35L91.1603 341.452C96.6617 341.883 101.636 339.451 104.418 333.914L113.291 338.372ZM90.3833 351.35C81.3548 350.642 72.3335 345.437 65.3199 337.134L72.9052 330.726C78.6332 337.507 85.3694 340.997 91.1601 341.451L90.3833 351.35ZM65.9297 330.12L67.0978 329.144L73.4634 336.765L72.2954 337.74L65.9297 330.12ZM73.4295 336.793L72.2531 337.758L65.9554 330.081L67.1317 329.116L73.4295 336.793ZM65.2815 337.087C62.869 334.176 59.5169 331.952 55.5978 329.878C53.6379 328.842 51.6752 327.911 49.6357 326.919C47.6545 325.955 45.5966 324.931 43.7205 323.805L48.8283 315.29C50.2941 316.17 52.0022 317.028 53.9796 317.99C55.8989 318.924 58.0877 319.962 60.241 321.102C64.5482 323.38 69.269 326.337 72.927 330.752L65.2815 337.087ZM43.7197 323.805C40.1058 321.636 35.4211 317.941 35.0574 311.673L44.9701 311.097C45.0296 312.123 45.7618 313.45 48.829 315.291L43.7197 323.805ZM35.0571 311.668C34.7245 305.851 38.186 300.424 43.2214 294.862L50.5822 301.526C45.7269 306.889 44.8862 309.63 44.9703 311.101L35.0571 311.668Z" fill="white" mask="url(#path-2-outside-1_107_38)"/>
<path d="M43.0628 311.211C43.1914 313.461 44.8282 315.133 47.8527 316.946C53.8967 320.574 64.6097 323.73 71.4487 331.976C77.3909 339.011 84.6347 342.874 91.013 343.375C97.3913 343.876 102.894 341.242 106.141 334.762L106.147 334.748L106.154 334.732C108.169 330.92 107.331 324.908 105.635 318.564C103.939 312.222 101.501 305.706 101.174 300.415V300.398C100.832 293.617 100.448 287.693 99.3048 283.121C98.1582 278.549 96.3553 275.457 93.1618 273.716C93.0118 273.636 92.8647 273.559 92.7173 273.487C92.3554 279.359 89.4327 285.353 84.268 286.648C78.6152 288.13 70.4685 283.305 67.0288 279.367C66.3406 279.341 65.6708 279.306 65.0196 279.29C62.0004 279.218 59.4715 279.391 56.8837 281.641L56.8759 281.649L56.8679 281.655C54.8801 283.332 53.9344 286.499 53.1147 290.044C52.2947 293.593 51.6413 297.455 49.1817 300.209L49.1791 300.212L49.1764 300.217C44.4505 305.434 42.9315 308.959 43.0628 311.211Z" fill="#D6A312"/>
<path d="M157.922 327.841L157.925 327.857V327.876C158.471 335.005 162.511 338.886 168.715 340.296C174.914 341.706 183.324 340.302 191.719 335.932C191.722 335.932 191.725 335.93 191.727 335.93C201.018 331.032 212.068 331.52 219.16 330.046C222.704 329.31 225.018 328.201 226.079 326.143C227.14 324.083 227.164 320.492 224.909 314.368L224.898 314.341L224.89 314.315C223.773 310.889 224.601 307.141 225.142 303.622C225.683 300.106 225.948 296.904 224.74 294.675L224.729 294.654C223.183 291.689 220.917 290.628 218.104 289.626C215.289 288.621 211.953 287.832 209.32 285.203L209.304 285.19L209.29 285.177C206.855 282.62 205.026 279.413 202.885 277.139C201.079 275.22 199.271 273.948 196.547 273.929C196.515 273.932 196.485 273.932 196.453 273.929C195.976 273.932 195.47 273.972 194.934 274.055C191.317 274.599 188.164 277.115 185.126 281.215L176.356 297.122L176.353 297.13L176.348 297.136C174.014 301.985 169.085 307.319 164.909 312.76C160.732 318.199 157.501 323.661 157.922 327.841Z" fill="#D6A312"/>
<path d="M114.18 179.55C114.885 178.177 116.324 176.871 118.772 175.871L118.777 175.868L118.785 175.866C123.878 173.696 126.088 173.541 128.931 171.702C133.557 168.743 137.38 167.706 140.557 167.719C142.221 167.724 143.708 168.017 145.039 168.476C148.91 169.801 151.479 172.565 153.089 174.082L153.092 174.085C153.092 174.088 153.095 174.088 153.095 174.09C153.411 174.389 153.818 174.661 154.804 175.381C155.798 176.103 157.287 177.191 159.43 178.79C161.335 180.211 161.954 182.061 161.295 184.229C160.638 186.396 158.538 188.896 154.697 191.058L154.691 191.064L154.683 191.066C152.299 192.461 150.67 194.34 148.8 195.836C147.865 196.582 146.882 197.249 145.698 197.752C144.514 198.256 143.132 198.598 141.401 198.699C137.34 198.933 134.35 197.72 131.711 196.217C129.067 194.716 126.828 192.879 124.259 192.05L124.253 192.048L124.248 192.045C118.981 190.408 115.225 187.11 114.049 183.978C113.46 182.41 113.479 180.923 114.18 179.55Z" fill="#D6A312"/>
<path d="M127.543 187.286C131.733 189.46 136.627 192.096 141.835 192.096C147.04 192.096 151.152 189.702 154.11 187.369C155.589 186.204 156.789 185.044 157.694 184.202C159.265 182.968 159.077 181.237 158.432 181.288C157.35 181.423 157.186 182.84 156.505 183.474C155.583 184.333 154.429 185.444 153.03 186.548C150.233 188.753 146.504 190.899 141.835 190.899C137.174 190.899 131.732 188.175 128.411 186.321C126.529 185.271 124.135 183.388 122.181 181.961C120.686 180.869 120.74 179.554 119.506 179.697C118.271 179.84 119.184 181.152 120.913 182.654C122.642 184.155 125.346 186.147 127.543 187.286V187.286Z" fill="#202020"/>
<path d="M63.3824 276.262C63.9638 276.241 64.5371 276.244 65.0943 276.257C65.1452 276.259 65.1961 276.259 65.2497 276.259C63.8111 271.738 66.9936 268.403 75.4751 264.586C84.2701 260.736 91.2782 261.117 92.4622 268.928C92.5373 269.336 92.5989 269.755 92.6444 270.176C93.3034 270.405 93.9625 270.693 94.6268 271.053C98.7551 273.303 101.011 277.382 102.264 282.389C103.516 287.39 103.877 293.433 104.22 300.228C104.22 300.231 104.22 300.231 104.22 300.234C104.432 303.649 105.846 308.271 107.277 313.166C121.684 323.395 141.68 327.825 158.659 316.293C159.808 314.483 161.129 312.689 162.487 310.919C163.355 309.788 164.247 308.666 165.131 307.557C163.39 307.56 161.908 307.274 160.711 306.736C159.221 306.062 158.176 304.985 157.657 303.598C156.623 300.828 157.662 296.92 160.976 292.455C164.29 287.992 169.902 282.956 178.148 277.923C178.148 277.923 178.148 277.923 178.148 277.921C184.208 274.17 187.594 269.573 189.18 264.583C190.768 259.59 190.546 254.192 189.322 248.863C186.975 238.634 180.947 228.685 177.1 222.441C176.066 221.684 176.731 223.849 180.996 231.729C184.816 238.933 191.96 255.557 182.18 268.534C181.917 259.3 179.702 249.881 175.981 241.07C170.561 228.847 159.227 207.646 158.326 190.75C157.86 191.086 156.266 192.157 155.556 192.56C155.554 192.562 155.554 192.562 155.551 192.562C153.472 193.781 151.91 195.562 149.888 197.18C147.86 198.801 145.328 200.2 141.503 200.421C141.136 200.443 140.777 200.453 140.426 200.453C136.482 200.453 133.407 199.174 130.846 197.716C128.062 196.132 125.839 194.378 123.73 193.695C123.728 193.693 123.725 193.693 123.722 193.693C119.267 192.306 115.729 189.854 113.714 186.996C110.253 200.571 102.206 220.178 97.0322 229.746C94.281 234.822 88.8109 245.608 86.4478 258.604C84.9503 258.558 83.3 258.774 81.5346 259.225C75.3543 243.28 86.7746 226.109 91.9985 221.327C94.1069 219.29 94.2087 218.378 93.1612 218.421C87.4979 223.409 80.0588 233.435 77.3528 244.754C76.1181 249.915 75.8553 255.343 77.1789 260.699C76.5333 260.965 75.8743 261.256 75.2073 261.571C65.2872 266.377 61.6197 270.557 63.3824 276.262Z" fill="white"/>
<path d="M113.714 163.912C113.693 166.602 114.159 168.892 115.185 171.23C115.769 172.563 116.441 173.683 117.248 174.653C117.521 174.522 117.805 174.397 118.1 174.277C119.12 173.843 120.023 173.485 120.832 173.181C121.641 172.877 122.273 172.67 122.924 172.446C122.452 171.878 121.523 171.209 121.177 170.369C120.652 169.103 120.395 167.866 120.347 166.392C120.347 166.333 120.328 166.282 120.328 166.213C120.298 164.8 120.486 163.593 120.901 162.356C121.335 161.057 121.887 160.124 122.685 159.349C123.486 158.573 124.285 158.221 125.244 158.189C125.289 158.186 125.332 158.186 125.378 158.186C126.278 158.189 127.06 158.498 127.869 159.17C128.718 159.876 129.348 160.78 129.873 162.038C130.395 163.297 130.652 164.544 130.704 166.027C130.711 166.085 130.711 166.136 130.711 166.194C130.73 167.01 130.676 167.757 130.551 168.482C132.394 167.567 134.752 166.901 136.38 166.514C136.474 165.813 136.528 165.091 136.544 164.333V164.128C136.573 161.446 136.131 159.146 135.095 156.81C134.058 154.472 132.775 152.793 130.969 151.425C129.161 150.06 127.385 149.434 125.282 149.413H125.183C123.125 149.413 121.365 150.015 119.557 151.319C117.722 152.646 116.399 154.304 115.332 156.624C114.288 158.884 113.784 161.094 113.733 163.715C113.733 163.784 113.733 163.843 113.714 163.912V163.912Z" fill="white"/>
<path d="M144.811 166.591C145.082 166.669 145.344 166.751 145.604 166.839C147.078 167.346 148.247 167.905 149.378 168.649C149.268 167.87 149.252 167.081 149.338 166.199C149.346 166.151 149.346 166.111 149.346 166.063C149.464 164.892 149.713 163.911 150.128 162.92C150.57 161.888 151.066 161.16 151.717 160.6C152.306 160.094 152.863 159.859 153.479 159.865C153.541 159.865 153.605 159.867 153.67 159.873C154.361 159.931 154.934 160.267 155.478 160.926C156.019 161.581 156.375 162.397 156.633 163.48C156.89 164.559 156.957 165.62 156.849 166.839C156.849 166.887 156.839 166.927 156.839 166.974C156.721 168.155 156.482 169.137 156.059 170.128C155.625 171.149 155.122 171.877 154.471 172.437C154.361 172.53 154.254 172.615 154.146 172.69C154.822 173.21 155.275 173.579 155.832 173.984C156.189 174.242 156.612 174.552 157.105 174.914C158.179 173.912 159.018 172.654 159.752 170.993C160.62 169.031 161.083 167.066 161.222 164.747V164.728C161.351 162.409 161.123 160.415 160.483 158.351C159.84 156.288 158.983 154.795 157.737 153.569C156.494 152.34 155.24 151.721 153.729 151.644C153.612 151.639 153.496 151.636 153.381 151.636C152.012 151.639 150.791 152.092 149.526 153.097C148.155 154.187 147.118 155.581 146.25 157.546C145.379 159.511 144.916 161.476 144.787 163.795V163.814C144.725 164.787 144.734 165.704 144.811 166.591V166.591Z" fill="white"/>
<path d="M137.938 172.139C137.765 172.693 136.868 172.601 136.35 172.866C135.896 173.099 135.53 173.61 135.019 173.624C134.532 173.638 133.773 173.456 133.709 172.975C133.626 172.339 134.559 171.935 135.159 171.702C135.932 171.402 136.922 171.25 137.647 171.651C137.813 171.743 137.995 171.958 137.938 172.139V172.139Z" fill="#202020"/>
<path d="M143.233 172.139C143.406 172.693 144.302 172.601 144.82 172.866C145.275 173.099 145.64 173.61 146.151 173.624C146.639 173.638 147.398 173.456 147.461 172.975C147.545 172.339 146.612 171.935 146.011 171.702C145.238 171.402 144.248 171.25 143.523 171.651C143.357 171.743 143.176 171.958 143.233 172.139V172.139Z" fill="#202020"/>
<path d="M200.503 146.096H66.0464L130.929 80.3435L200.503 146.096Z" fill="#D6A312" stroke="white" stroke-width="4.96469" stroke-linejoin="round"/>
</svg>
