<svg width="800" height="300" viewBox="0 0 800 300" fill="none" xmlns="http://www.w3.org/2000/svg">
<path d="M766.192 53.5134L141.991 55.8431V279.674H765.54V181.219L788.566 191.4C798.677 176.451 802.4 146.12 792.983 130.341L765.54 141.837L766.192 53.5134Z" fill="white"/>
<path fill-rule="evenodd" clip-rule="evenodd" d="M256.569 147.905H280.108C286.451 147.905 291.594 153.048 291.594 159.392V228.559H335.715C342.059 228.559 347.201 233.702 347.201 240.046V267.771C347.201 274.115 342.059 279.257 335.715 279.257H245.294C238.95 279.257 233.807 274.115 233.807 267.771V159.392C233.807 153.505 238.235 148.653 243.942 147.984H220.403C214.059 147.984 208.917 142.841 208.917 136.497V67.3296H184.802C178.458 67.3296 173.315 62.1869 173.315 55.8431V28.1182C173.315 21.7745 178.458 16.6318 184.802 16.6318H290.661C297.004 16.6318 302.147 21.7745 302.147 28.1182V49.1969C312.165 42.7738 324.365 39.9459 337.936 39.9459C354.792 39.9459 369.556 43.889 380.381 53.5594C383.624 56.4278 386.319 59.6688 388.515 63.226V53.3227C388.515 46.9789 393.657 41.8363 400.001 41.8363H425.678C428.263 41.8363 430.674 42.6967 432.612 44.1654C438.14 41.2068 444.2 39.7884 450.568 39.7884C453.858 39.7884 457.165 40.2026 460.35 41.2222C461.248 41.4736 462.091 41.7218 462.785 41.9531C463.115 42.0629 463.714 42.2679 464.35 42.5506C464.605 42.664 465.348 42.9978 466.189 43.5587C466.581 43.8202 467.473 44.4417 468.388 45.459C468.519 45.6046 468.704 45.8159 468.918 46.0908C471.024 43.4951 474.239 41.8363 477.842 41.8363H503.519C506.891 41.8363 509.964 43.2997 512.083 45.6669C512.449 45.473 512.818 45.2829 513.19 45.0968L513.271 45.0567C520.177 41.6712 527.523 39.9459 535.182 39.9459C546.938 39.9459 557.771 43.2588 565.451 51.773C568.424 55.07 570.659 58.8063 572.267 62.8646C575.097 57.1008 579.704 52.3054 585.683 48.6L585.744 48.5624C595.866 42.3767 609.057 39.9459 624.027 39.9459C637.894 39.9459 650.279 42.2748 660.464 47.7552C666.079 50.7217 670.765 54.9045 673.974 60.4365C675 62.2036 675.834 64.0395 676.495 65.9292V22.1322C676.495 15.7884 681.638 10.6458 687.982 10.6458H719.33C725.674 10.6458 730.816 15.7884 730.816 22.1322V53.5134L737.142 45.9521C739.325 43.3436 742.551 41.8363 745.952 41.8363H782.499C787.052 41.8363 791.176 44.5265 793.011 48.6942C794.846 52.8619 794.046 57.7201 790.971 61.0789L766.192 88.1448L792.983 130.341C795.229 133.878 795.371 138.358 793.353 142.03C791.334 145.702 787.477 147.984 783.286 147.984H747.685C743.69 147.984 739.982 145.908 737.893 142.502L730.816 130.963V136.497C730.816 142.841 725.674 147.984 719.33 147.984H687.982C685.656 147.984 683.492 147.293 681.684 146.105C681.61 146.138 681.546 146.166 681.493 146.189L681.481 146.194C680.838 146.475 680.108 146.768 679.347 147.061C679.184 147.123 679.021 147.182 678.856 147.237C676.835 147.91 674.414 148.435 671.901 148.878C668.572 149.579 665.028 149.874 661.361 149.874C654.247 149.874 647.474 148.846 641.548 146.195C641.472 146.161 641.397 146.126 641.322 146.091C641.286 146.074 641.249 146.056 641.213 146.039C639.431 145.172 637.73 144.16 636.149 142.993C633.829 144.228 631.418 145.323 628.922 146.279C622.391 148.78 615.167 149.874 607.486 149.874C596.503 149.874 586.142 147.74 578.359 141.547C577.296 140.701 576.314 139.807 575.409 138.868C574.317 144.074 569.699 147.984 564.167 147.984H532.819C526.476 147.984 521.333 142.841 521.333 136.497V86.4036C521.333 86.3222 521.332 86.2456 521.33 86.1736C521.287 86.1858 521.263 86.1954 521.254 86.199C521.229 86.2091 521.221 86.2142 521.217 86.2173C521.211 86.221 521.174 86.2463 521.106 86.3172C520.889 86.5443 520.827 86.6804 520.798 86.7555C520.764 86.8414 520.677 87.1029 520.677 87.6638V136.497C520.677 142.841 515.534 147.984 509.19 147.984H477.842C471.498 147.984 466.356 142.841 466.356 136.497V88.9482C464.508 90.2165 462.272 90.9588 459.862 90.9588H449.78C447.465 90.9588 446.021 91.2633 445.2 91.5552C444.646 91.7523 444.401 91.9305 444.303 92.0197C443.855 92.6218 442.836 94.5683 442.836 99.4784V136.497C442.836 142.841 437.693 147.984 431.349 147.984H409.555C410.475 149.636 410.999 151.538 410.999 153.563V174.829C410.999 176.575 410.609 178.231 409.912 179.713C410.609 181.195 410.999 182.85 410.999 184.596V267.771C410.999 274.115 405.856 279.257 399.512 279.257H368.164C361.821 279.257 356.678 274.115 356.678 267.771V184.596C356.678 182.85 357.068 181.195 357.765 179.713C357.068 178.231 356.678 176.575 356.678 174.829V153.563C356.678 151.669 357.137 149.881 357.949 148.306C352.284 149.388 346.208 149.874 339.827 149.874C322.733 149.874 307.78 145.922 296.525 136.473L296.462 136.42C284.659 126.366 279.664 111.772 279.664 94.9101C279.664 84.7289 281.513 75.3764 285.592 67.3296H266.703V136.497C266.703 142.384 262.276 147.236 256.569 147.905ZM375.642 142.077H389.958C389.039 140.425 388.515 138.522 388.515 136.497V130.97C386.242 133.974 383.474 136.702 380.211 139.116C378.756 140.192 377.231 141.178 375.642 142.077ZM384.466 111.752C384.742 109.998 384.88 108.165 384.88 106.252H354.477C354.477 108.318 354.079 110.151 353.283 111.752C352.662 113.001 351.8 114.108 350.696 115.074C348.281 117.279 344.447 118.382 339.197 118.382C333.421 118.382 329.167 116.859 326.437 113.813C325.898 113.188 325.414 112.501 324.986 111.752C323.328 108.852 322.499 105.024 322.499 100.266H384.88V94.9101C384.88 94.8619 384.88 94.8138 384.88 94.7657C384.876 92.6951 384.792 90.6997 384.627 88.7796C383.628 77.1332 379.669 68.2547 372.75 62.1443C364.769 55.003 353.164 51.4324 337.936 51.4324C323.339 51.4324 311.892 55.108 303.595 62.4593C295.299 69.8106 291.15 80.6275 291.15 94.9101C291.15 109.508 295.404 120.43 303.91 127.676C312.417 134.817 324.389 138.388 339.827 138.388C354.529 138.388 365.714 135.552 373.38 129.881C377.842 126.581 381.005 122.533 382.87 117.739C383.602 115.858 384.134 113.863 384.466 111.752ZM348.023 73.972C345.749 72.2829 342.807 71.4384 339.197 71.4384C335 71.4384 331.591 72.2829 328.97 73.972C325.425 76.2562 323.32 80.085 322.656 85.4584H353.217C353.217 81.1526 351.956 77.7395 349.436 75.2191C348.998 74.7619 348.527 74.3462 348.023 73.972ZM399.512 184.596H368.164V267.771H399.512V184.596ZM435.602 84.5132C438.543 81.1526 443.269 79.4723 449.78 79.4723H459.862V53.1652C459.862 53.0602 458.917 52.7451 457.026 52.22C455.136 51.5899 452.983 51.2748 450.568 51.2748C445.76 51.2748 441.41 52.375 437.519 54.5753C437.245 54.7299 436.974 54.89 436.705 55.0555C432.609 57.4709 429.616 61.0941 427.726 65.9249L425.678 53.3227H400.001V136.497H431.349V99.4784C431.349 92.8622 432.767 87.8738 435.602 84.5132ZM584.645 96.6429C580.339 100.844 578.186 106.987 578.186 115.074C578.186 130.616 587.953 138.388 607.486 138.388C614.103 138.388 619.879 137.443 624.814 135.552C626.031 135.086 627.219 134.582 628.379 134.039C631.922 132.381 635.197 130.365 638.204 127.991C639.13 130.041 640.535 131.821 642.419 133.329C643.526 134.216 644.8 135.01 646.238 135.71C650.229 137.495 655.27 138.388 661.361 138.388C664.511 138.388 667.294 138.125 669.71 137.6C672.125 137.18 673.963 136.76 675.223 136.34C675.716 136.151 676.14 135.982 676.495 135.833C677.126 135.57 677.542 135.372 677.744 135.237V117.122H672.073C670.393 117.122 669.132 116.544 668.292 115.389C667.452 114.234 667.032 112.763 667.032 110.978V78.5272C667.032 68.9705 663.041 62.0918 655.06 57.891C647.078 53.5852 636.734 51.4324 624.027 51.4324C610.059 51.4324 599.295 53.7428 591.734 58.3636C587.492 60.9919 584.457 64.1468 582.629 67.8284C581.624 69.8512 580.983 72.033 580.707 74.3738C580.602 75.2628 580.549 76.1746 580.549 77.1094C580.549 78.0546 580.602 78.7897 580.707 79.3148H611.582V78.6847C611.582 77.2006 611.983 75.9531 612.784 74.9424C613.343 74.2366 614.098 73.6462 615.048 73.1712C617.463 72.016 620.299 71.4384 623.554 71.4384C627.125 71.4384 630.013 72.2786 632.218 73.9589C632.232 73.969 632.246 73.9793 632.26 73.9895C634.543 75.6691 635.684 78.1268 635.684 81.3627V85.4584C630.401 85.4584 625.519 85.584 621.04 85.8351C617.658 86.0246 614.506 86.2857 611.582 86.6184C608.678 86.9488 606 87.3498 603.548 87.8213C599.839 88.5347 596.517 89.528 593.583 90.8012C590.038 92.3397 587.058 94.2869 584.645 96.6429ZM576.621 88.4235C576.289 88.7474 575.967 89.0766 575.654 89.411L576.621 88.4235ZM615.835 103.259C611.635 105.149 609.534 107.722 609.534 110.978C609.534 116.229 613.105 118.854 620.246 118.854C624.342 118.854 627.912 117.752 630.958 115.546C632.566 114.421 633.764 113.158 634.551 111.759C635.306 110.417 635.684 108.949 635.684 107.355V100.266C631.297 100.266 627.468 100.507 624.197 100.989C620.812 101.488 618.025 102.244 615.835 103.259ZM687.982 136.497H719.33V118.539L730.199 107.985L747.685 136.497H783.286L751.781 86.8762L782.499 53.3227H745.952L719.33 85.1433V22.1322H687.982V136.497ZM515.721 56.7957C511.65 59.2253 508.266 62.2684 505.567 65.9249L503.519 53.3227H477.842V136.497H509.19V87.6638C509.19 83.9881 510.398 80.8901 512.813 78.3696C515.229 75.8492 518.379 74.589 522.265 74.589C525.626 74.589 528.198 75.6917 529.984 77.8971C531.874 79.9974 532.819 82.8329 532.819 86.4036V136.497H564.167V82.6229C564.167 72.5411 561.752 64.8222 556.921 59.4663C552.09 54.1103 544.844 51.4324 535.182 51.4324C529.301 51.4324 523.683 52.7451 518.327 55.3706C517.429 55.8195 516.56 56.2946 515.721 56.7957ZM220.403 55.8431V136.497H255.217V55.8431H290.661V28.1182H184.802V55.8431H220.403ZM280.108 240.046V159.392H245.294V267.771H335.715V240.046H280.108ZM536.235 267.771C536.235 274.115 531.092 279.257 524.748 279.257H493.4C487.057 279.257 481.914 274.115 481.914 267.771V217.677C481.914 217.596 481.913 217.519 481.911 217.447C481.868 217.459 481.844 217.469 481.835 217.472C481.81 217.482 481.803 217.487 481.798 217.49C481.793 217.494 481.755 217.52 481.687 217.59C481.47 217.818 481.408 217.954 481.379 218.029C481.346 218.115 481.258 218.376 481.258 218.937V267.771C481.258 274.115 476.115 279.257 469.771 279.257H438.423C432.079 279.257 426.937 274.115 426.937 267.771V184.596C426.937 178.252 432.079 173.11 438.423 173.11H464.1C467.472 173.11 470.546 174.573 472.664 176.94C473.03 176.746 473.399 176.556 473.771 176.37L473.852 176.33C480.758 172.944 488.104 171.219 495.763 171.219C507.519 171.219 518.352 174.532 526.032 183.046C533.407 191.224 536.235 202.103 536.235 213.896V267.771ZM476.302 188.069C472.231 190.499 468.847 193.542 466.148 197.198L464.1 184.596H438.423V267.771H469.771V218.937C469.771 215.261 470.979 212.163 473.394 209.643C475.81 207.122 478.96 205.862 482.846 205.862C486.207 205.862 488.78 206.965 490.565 209.17C492.455 211.271 493.4 214.106 493.4 217.677V267.771H524.748V213.896C524.748 203.814 522.333 196.096 517.502 190.74C512.671 185.384 505.425 182.706 495.763 182.706C489.882 182.706 484.264 184.018 478.908 186.644C478.01 187.093 477.141 187.568 476.302 188.069ZM610.541 264.379C614.629 261.946 618.009 258.875 620.682 255.169L622.73 267.771H648.407V184.596H617.059V233.43C617.059 237.105 615.851 240.203 613.435 242.724C611.02 245.244 607.87 246.504 603.984 246.504C600.623 246.504 597.998 245.454 596.107 243.354C594.322 241.149 593.429 238.261 593.429 234.69V184.596H562.081V238.471C562.081 248.552 564.497 256.271 569.328 261.627C574.159 266.983 581.405 269.661 591.066 269.661C596.948 269.661 602.514 268.401 607.764 265.88C608.724 265.41 609.649 264.91 610.541 264.379ZM604.919 234.92C604.917 234.847 604.916 234.77 604.916 234.69V184.596C604.916 178.252 599.773 173.11 593.429 173.11H562.081C555.738 173.11 550.595 178.252 550.595 184.596V238.471C550.595 250.264 553.423 261.143 560.798 269.32C568.478 277.835 579.311 279.674 591.066 279.674C598.651 279.674 605.917 279.508 612.735 276.236L612.82 276.194C613.291 275.964 613.757 275.727 614.217 275.483C616.333 277.817 619.385 279.257 622.73 279.257H648.407C654.75 279.257 659.893 274.115 659.893 267.771V184.596C659.893 178.252 654.75 173.11 648.407 173.11H617.059C610.715 173.11 605.572 178.252 605.572 184.596V233.43C605.572 233.991 605.484 234.252 605.451 234.338C605.422 234.413 605.36 234.549 605.142 234.776C605.075 234.847 605.037 234.872 605.032 234.876L605.028 234.879C605.023 234.882 605.014 234.887 604.995 234.894C604.986 234.898 604.961 234.908 604.919 234.92ZM791.425 273.007C789.46 276.844 785.512 279.257 781.202 279.257H744.655C740.628 279.257 736.894 277.148 734.816 273.698L728.54 263.28L722.175 273.741C720.091 277.167 716.371 279.257 712.362 279.257H677.548C673.231 279.257 669.278 276.836 667.316 272.991C665.354 269.145 665.715 264.524 668.249 261.029L695.295 223.723L671.456 191.416C668.882 187.928 668.491 183.289 670.445 179.419C672.399 175.55 676.364 173.11 680.699 173.11H717.56C721.595 173.11 725.334 175.227 727.41 178.686L731.108 184.849L734.806 178.686C736.881 175.227 740.62 173.11 744.655 173.11H779.311C783.642 173.11 787.605 175.546 789.56 179.41C791.516 183.275 791.131 187.91 788.566 191.4L764.216 224.521L790.523 261.059C793.042 264.557 793.39 269.171 791.425 273.007ZM750.011 224.451L779.311 184.596H744.655L731.423 206.65H730.793L717.56 184.596H680.699L709.526 223.663L677.548 267.771H712.362L728.272 241.621H728.902L744.655 267.771H781.202L750.011 224.451ZM399.512 174.829H368.164V153.563H399.512V174.829Z" fill="white"/>
<path d="M15.8971 228.821C15.9087 228.808 15.9203 228.795 15.932 228.782C15.9284 228.786 15.9264 228.788 15.926 228.787C15.9217 228.784 16.1595 228.442 16.5109 227.372C16.8964 226.198 17.228 224.778 17.6597 222.909C17.6895 222.779 17.7202 222.645 17.7519 222.506C18.4955 219.247 19.8182 213.452 24.4633 209.488C24.4701 209.482 24.4767 209.476 24.4832 209.471C24.5639 209.401 24.6448 209.332 24.726 209.264C21.9603 197.101 23.9497 185.303 27.8988 174.918L15.8971 228.821ZM15.8971 228.821C10.9139 234.342 7.0918 240.14 7.46075 246.591L7.46107 246.597C7.87202 253.679 13.1702 257.734 16.8441 259.939L16.8451 259.939C18.7731 261.096 20.8714 262.139 22.8366 263.095C23.2198 263.281 23.5984 263.465 23.9732 263.646C25.5952 264.432 27.1461 265.183 28.6987 266.004C32.5014 268.016 35.5871 270.089 37.7715 272.709C37.7982 272.742 37.8252 272.774 37.8526 272.807C45.0193 281.291 54.3418 286.736 63.8291 287.48C73.4635 288.237 82.7497 283.803 87.8012 274.361C91.4437 274.229 94.792 273.768 97.6786 273.354L97.9759 273.311C102.217 272.702 105.026 272.299 107.394 272.489C107.45 272.494 107.506 272.498 107.561 272.501C112.007 272.744 115.635 273.396 119.03 274.043C119.287 274.092 119.547 274.142 119.809 274.192C121.624 274.541 123.551 274.912 125.506 275.154C128.874 279.916 133.913 282.951 139.505 284.219C148.568 286.277 159.073 284.119 168.76 279.105C168.813 279.079 168.866 279.051 168.919 279.024C172.012 277.392 175.772 276.528 180.164 275.914C181.467 275.732 182.957 275.562 184.516 275.384C187.575 275.034 190.901 274.654 193.599 274.094L193.603 274.093C197.849 273.209 203.926 271.253 207.033 265.237L207.035 265.233C209.991 259.5 208.877 252.84 206.45 246.151C206.436 246.053 206.373 245.592 206.45 244.537C206.538 243.339 206.748 241.975 207.02 240.209L207.056 239.974L200.569 238.976L207.056 239.974C207.313 238.306 207.656 236.06 207.656 233.737C207.656 231.157 207.245 228.117 205.636 225.13C205.619 225.098 205.601 225.066 205.584 225.035C202.422 219.115 197.238 216.844 193.831 215.627L193.825 215.625C193.196 215.4 192.671 215.22 192.21 215.062C191.332 214.761 190.688 214.54 190.002 214.248C189.206 213.909 188.871 213.67 188.717 213.532C188.077 212.842 187.395 211.916 186.339 210.476C185.573 209.432 184.635 208.153 183.542 206.872C184.142 198.956 182.663 190.985 180.159 183.497L180.159 183.497C174.194 165.663 161.84 148.905 153.279 138.743L15.8971 228.821ZM49.6769 140.118C42.7684 148.25 33.3622 160.54 27.8995 174.916L49.6769 140.118ZM49.6769 140.118C57.4719 130.332 63.142 123.097 63.0258 112.481C63.0167 111.663 63.0038 110.801 62.9902 109.902C62.8428 100.102 62.6277 85.8074 66.6479 73.6542C68.8987 66.8497 72.6068 60.2443 78.7657 55.3564C84.9906 50.4162 93.1239 47.7033 103.326 47.6886C103.326 47.6886 103.327 47.6886 103.327 47.6886L49.6769 140.118ZM15.3418 229.559C15.3919 229.481 15.4436 229.405 15.4968 229.33C15.4199 229.438 15.3676 229.518 15.3418 229.559ZM205.796 225.452C205.791 225.441 205.785 225.428 205.778 225.414C205.822 225.506 205.849 225.567 205.832 225.531C205.831 225.528 205.816 225.494 205.796 225.452ZM24.6698 209.317C24.6682 209.318 24.6645 209.321 24.6592 209.325C24.67 209.317 24.682 209.307 24.6698 209.317ZM15.1089 229.946L15.1086 229.947L15.1089 229.946Z" fill="black" stroke="white" stroke-width="13.1273" stroke-linejoin="round"/>
<path fill-rule="evenodd" clip-rule="evenodd" d="M27.7156 87.3887C25.6736 82.5049 26.7647 76.8724 30.4829 73.1044L94.8176 7.90695C99.8324 2.82488 107.989 2.6826 113.178 7.58668L182.164 72.7841C186.072 76.4774 187.332 82.1805 185.345 87.1768C183.357 92.173 178.524 95.4521 173.147 95.4521H39.8269C34.5333 95.4521 29.7577 92.2726 27.7156 87.3887ZM173.147 82.3248L104.162 17.1273L39.8269 82.3248H173.147Z" fill="white"/>
<path d="M20.8436 233.137C20.8462 233.135 20.8491 233.129 20.8491 233.129C22.4613 231.319 23.2292 227.962 24.055 224.385C24.8788 220.811 25.8002 216.958 28.7487 214.46C28.7543 214.454 28.7623 214.449 28.7673 214.443C29.3517 213.936 29.952 213.508 30.555 213.151C31.1604 212.794 31.7742 212.503 32.3876 212.273C28.2889 200.177 29.896 188.132 34.0345 177.249C39.1107 163.89 47.9747 152.251 54.7456 144.29C62.3241 134.776 69.7354 125.747 69.5891 112.408C69.3635 92.052 67.3394 54.3025 103.338 54.2523C104.801 54.2496 106.329 54.3104 107.92 54.4373C148.147 57.6595 137.476 99.9529 138.074 114.113C138.81 124.47 140.919 132.632 148.078 142.756C156.485 152.706 168.327 168.812 173.934 185.578C176.58 193.49 177.839 201.555 176.678 209.188C177.042 209.514 177.387 209.855 177.719 210.204C180.187 212.829 182.012 216.006 184.044 218.144C185.943 220.032 188.647 220.748 191.622 221.808C194.597 222.871 197.862 224.435 199.844 228.22L199.846 228.223C199.849 228.229 199.852 228.237 199.857 228.242C200.789 229.973 201.092 231.842 201.092 233.737C201.092 235.49 200.832 237.266 200.569 238.976C200.022 242.534 199.466 245.899 200.202 248.178C202.556 254.582 202.859 259.01 201.201 262.225C199.538 265.444 196.125 266.864 192.265 267.667C184.546 269.269 174.093 268.873 165.856 273.218L165.147 271.889L165.848 273.221C157.029 277.81 148.088 279.438 140.956 277.818C135.782 276.644 131.585 273.578 129.428 268.862C123.85 268.836 117.727 266.483 107.92 265.947C101.266 265.412 92.9541 268.299 83.3941 267.77C83.1444 268.801 82.7829 269.795 82.2891 270.739C82.2835 270.746 82.2785 270.757 82.2729 270.765C78.5676 278.14 71.6825 281.513 64.3428 280.937C56.9958 280.36 49.1836 276.049 42.8667 268.571L44.0248 267.604L42.8584 268.561C36.8393 261.297 26.8489 258.286 20.2215 254.31C16.909 252.323 14.2235 249.833 14.0137 246.217C13.807 242.603 15.94 238.554 20.8436 233.137Z" fill="black"/>
<path d="M17.0372 246.045C17.1647 248.275 18.7877 249.933 21.7867 251.731C27.7796 255.328 38.4021 258.458 45.1834 266.634C51.0753 273.609 58.2579 277.44 64.5823 277.937C70.9067 278.434 76.363 275.822 79.5824 269.396L79.588 269.383L79.5957 269.367C81.5935 265.587 80.7621 259.626 79.0807 253.335C77.3992 247.047 74.982 240.586 74.6579 235.339V235.323C74.3182 228.599 73.9381 222.725 72.8041 218.192C71.6672 213.658 69.8795 210.592 66.7129 208.866C66.5642 208.787 66.4184 208.71 66.2723 208.639C65.9134 214.462 63.0154 220.404 57.8943 221.689C52.2892 223.159 44.2114 218.374 40.8007 214.47C40.1183 214.443 39.4543 214.409 38.8085 214.393C35.8149 214.322 33.3073 214.494 30.7413 216.725L30.7336 216.732L30.7257 216.738C28.7547 218.4 27.817 221.541 27.0042 225.056C26.1911 228.575 25.5432 232.405 23.1045 235.135L23.1018 235.138L23.0992 235.144C18.4132 240.317 16.9071 243.811 17.0372 246.045Z" fill="#D6A312"/>
<path d="M130.926 262.534L130.929 262.55V262.568C131.471 269.637 135.476 273.485 141.628 274.884C147.775 276.282 156.113 274.889 164.438 270.557C164.44 270.557 164.443 270.554 164.446 270.554C173.658 265.698 184.615 266.182 191.646 264.72C195.161 263.991 197.456 262.891 198.508 260.85C199.559 258.807 199.583 255.246 197.347 249.175L197.336 249.148L197.328 249.122C196.22 245.725 197.041 242.008 197.578 238.519C198.114 235.033 198.377 231.858 197.179 229.648L197.169 229.627C195.636 226.688 193.389 225.635 190.6 224.642C187.808 223.645 184.501 222.863 181.89 220.256L181.874 220.243L181.861 220.23C179.446 217.695 177.632 214.515 175.509 212.26C173.719 210.357 171.926 209.096 169.224 209.078C169.193 209.081 169.163 209.081 169.132 209.078C168.659 209.081 168.157 209.12 167.625 209.202C164.039 209.741 160.913 212.236 157.901 216.302L149.204 232.075L149.201 232.083L149.196 232.088C146.882 236.896 141.995 242.185 137.854 247.58C133.712 252.973 130.509 258.389 130.926 262.534Z" fill="#D6A312"/>
<path d="M87.5538 115.495C88.2524 114.134 89.6788 112.839 92.1067 111.848L92.112 111.845L92.1199 111.842C97.1696 109.691 99.361 109.537 102.179 107.713C106.767 104.779 110.557 103.751 113.708 103.764C115.357 103.77 116.831 104.06 118.152 104.515C121.99 105.829 124.537 108.57 126.134 110.074L126.137 110.077C126.137 110.079 126.139 110.079 126.139 110.082C126.453 110.378 126.856 110.648 127.834 111.361C128.819 112.078 130.296 113.156 132.421 114.742C134.31 116.151 134.924 117.985 134.27 120.134C133.619 122.283 131.537 124.763 127.728 126.907L127.722 126.912L127.714 126.915C125.35 128.297 123.735 130.161 121.881 131.644C120.954 132.384 119.979 133.045 118.805 133.544C117.631 134.044 116.26 134.382 114.544 134.482C110.517 134.715 107.553 133.512 104.937 132.022C102.315 130.533 100.094 128.712 97.5468 127.89L97.5414 127.887L97.5359 127.885C92.3138 126.262 88.5894 122.992 87.4236 119.886C86.8392 118.332 86.8578 116.857 87.5538 115.495Z" fill="#D6A312"/>
<path d="M100.804 123.167C104.958 125.322 109.811 127.935 114.975 127.935C120.136 127.935 124.214 125.562 127.146 123.249C128.613 122.094 129.803 120.944 130.7 120.108C132.258 118.885 132.072 117.169 131.432 117.219C130.359 117.353 130.197 118.758 129.521 119.387C128.607 120.238 127.462 121.34 126.076 122.435C123.303 124.621 119.605 126.748 114.975 126.748C110.353 126.748 104.958 124.048 101.664 122.21C99.7985 121.168 97.4243 119.301 95.4867 117.886C94.0043 116.803 94.0584 115.499 92.8344 115.641C91.6104 115.783 92.5159 117.084 94.2299 118.573C95.944 120.062 98.6256 122.037 100.804 123.167Z" fill="#202020"/>
<path d="M37.1851 211.39C37.7615 211.369 38.33 211.372 38.8825 211.385C38.933 211.388 38.9834 211.388 39.0366 211.388C37.6101 206.905 40.7658 203.598 49.1757 199.813C57.8963 195.996 64.8452 196.374 66.0192 204.119C66.0936 204.523 66.1547 204.938 66.1999 205.356C66.8533 205.583 67.5068 205.869 68.1655 206.225C72.2589 208.456 74.4955 212.501 75.7386 217.465C76.9791 222.424 77.3377 228.416 77.6777 235.154C77.6777 235.157 77.6777 235.157 77.6777 235.16C77.8876 238.546 79.2901 243.129 80.7086 247.983C94.9942 258.125 114.821 262.518 131.656 251.083C132.796 249.288 134.106 247.509 135.452 245.754C136.313 244.634 137.197 243.52 138.074 242.421C136.347 242.424 134.878 242.141 133.691 241.607C132.214 240.938 131.178 239.87 130.663 238.496C129.638 235.749 130.668 231.874 133.954 227.446C137.24 223.021 142.805 218.028 150.981 213.038C150.981 213.038 150.981 213.038 150.981 213.035C156.99 209.316 160.347 204.758 161.92 199.81C163.495 194.859 163.274 189.507 162.06 184.223C159.733 174.08 153.757 164.215 149.942 158.024C148.917 157.274 149.576 159.42 153.805 167.234C157.592 174.376 164.677 190.86 154.979 203.728C154.718 194.571 152.522 185.232 148.832 176.496C143.458 164.376 132.22 143.354 131.327 126.6C130.865 126.934 129.284 127.996 128.58 128.395C128.578 128.398 128.578 128.398 128.575 128.398C126.514 129.606 124.965 131.372 122.96 132.976C120.949 134.583 118.439 135.971 114.645 136.19C114.282 136.212 113.926 136.222 113.578 136.222C109.668 136.222 106.618 134.953 104.079 133.508C101.319 131.937 99.1141 130.198 97.0233 129.521C97.0206 129.519 97.018 129.519 97.0153 129.519C92.5979 128.144 89.0889 125.712 87.0917 122.879C83.6597 136.339 75.6802 155.78 70.5506 165.267C67.8226 170.3 62.3987 180.995 60.0556 193.881C58.5707 193.836 56.9344 194.05 55.1839 194.497C49.0559 178.687 60.3797 161.661 65.5594 156.919C67.65 154.9 67.7509 153.996 66.7123 154.038C61.0969 158.984 53.7206 168.925 51.0375 180.149C49.8132 185.266 49.5526 190.648 50.8651 195.959C50.2249 196.223 49.5714 196.511 48.91 196.823C39.0738 201.589 35.4373 205.734 37.1851 211.39Z" fill="white"/>
<path d="M87.0921 99.9896C87.0709 102.657 87.5331 104.927 88.5504 107.246C89.1295 108.567 89.796 109.677 90.5955 110.64C90.8667 110.51 91.148 110.386 91.4405 110.267C92.4525 109.836 93.3477 109.482 94.1497 109.181C94.9521 108.879 95.5782 108.673 96.2239 108.451C95.7562 107.888 94.8347 107.225 94.4918 106.392C93.9711 105.137 93.7161 103.91 93.6683 102.448C93.6683 102.39 93.6497 102.34 93.6497 102.271C93.6205 100.87 93.8064 99.6727 94.2182 98.4462C94.6485 97.1589 95.1959 96.2338 95.9873 95.4645C96.7815 94.6953 97.5731 94.3464 98.524 94.3147C98.5692 94.312 98.6117 94.312 98.6568 94.312C99.5494 94.3147 100.325 94.6213 101.127 95.2874C101.97 95.9879 102.594 96.884 103.114 98.1317C103.632 99.3793 103.887 100.616 103.938 102.086C103.946 102.144 103.946 102.194 103.946 102.253C103.964 103.061 103.911 103.802 103.786 104.521C105.614 103.614 107.952 102.953 109.567 102.57C109.66 101.874 109.713 101.158 109.729 100.407V100.204C109.758 97.5446 109.32 95.2634 108.292 92.9478C107.264 90.6296 105.991 88.9643 104.201 87.6083C102.408 86.2549 100.647 85.6337 98.562 85.6125H98.4638C96.4237 85.6125 94.6785 86.2099 92.8855 87.5025C91.066 88.8189 89.7537 90.4631 88.6965 92.7628C87.6606 95.0043 87.1612 97.1956 87.1105 99.794C87.1107 99.8628 87.1107 99.9209 87.0921 99.9896Z" fill="white"/>
<path d="M117.926 102.646C118.194 102.723 118.455 102.805 118.712 102.892C120.173 103.395 121.333 103.949 122.454 104.686C122.345 103.914 122.329 103.132 122.414 102.257C122.422 102.21 122.422 102.17 122.422 102.122C122.539 100.962 122.786 99.9891 123.198 99.0058C123.636 97.9828 124.128 97.2612 124.773 96.7061C125.357 96.2039 125.91 95.9712 126.521 95.9765C126.582 95.9765 126.646 95.9792 126.71 95.9845C127.395 96.0426 127.963 96.3757 128.503 97.0286C129.039 97.6788 129.392 98.4877 129.647 99.5609C129.902 100.631 129.969 101.683 129.863 102.891C129.863 102.939 129.852 102.979 129.852 103.026C129.735 104.197 129.499 105.17 129.079 106.153C128.649 107.166 128.149 107.887 127.504 108.443C127.395 108.535 127.289 108.62 127.182 108.694C127.852 109.209 128.301 109.575 128.854 109.976C129.207 110.233 129.627 110.539 130.116 110.899C131.181 109.905 132.012 108.657 132.74 107.011C133.601 105.065 134.06 103.117 134.198 100.817V100.799C134.326 98.4991 134.1 96.5219 133.465 94.4759C132.828 92.43 131.978 90.9497 130.743 89.7338C129.51 88.5152 128.267 87.902 126.769 87.8253C126.652 87.82 126.538 87.8174 126.423 87.8174C125.066 87.82 123.855 88.2694 122.601 89.2659C121.241 90.3471 120.213 91.7295 119.352 93.6777C118.489 95.6258 118.03 97.5739 117.902 99.8736V99.8921C117.841 100.857 117.849 101.766 117.926 102.646Z" fill="white"/>
<path d="M111.111 108.147C110.94 108.696 110.051 108.605 109.537 108.868C109.087 109.099 108.724 109.605 108.217 109.62C107.734 109.634 106.981 109.453 106.918 108.976C106.835 108.345 107.761 107.945 108.356 107.714C109.122 107.416 110.104 107.265 110.823 107.663C110.988 107.754 111.167 107.968 111.111 108.147V108.147Z" fill="#202020"/>
<path d="M116.361 108.147C116.532 108.696 117.421 108.605 117.935 108.868C118.385 109.099 118.748 109.605 119.255 109.62C119.738 109.634 120.491 109.453 120.554 108.976C120.637 108.345 119.711 107.945 119.116 107.714C118.35 107.416 117.368 107.265 116.649 107.663C116.484 107.754 116.305 107.968 116.361 108.147V108.147Z" fill="#202020"/>
<path d="M173.147 82.3246H39.8269L104.162 17.1272L173.147 82.3246Z" fill="#D6A312" stroke="black" stroke-width="3.10047" stroke-linejoin="round"/>
<path d="M255.217 55.8431V136.497H220.403V55.8431H184.802V28.1181H290.661V55.8431H255.217Z" fill="black"/>
<path d="M337.936 51.4323C353.164 51.4323 364.769 55.0029 372.75 62.1442C380.837 69.2854 384.88 80.2074 384.88 94.91V100.266H322.499C322.499 106.252 323.811 110.768 326.437 113.813C329.167 116.859 333.421 118.382 339.197 118.382C344.448 118.382 348.281 117.279 350.696 115.074C353.217 112.868 354.477 109.928 354.477 106.252H384.88C384.88 116.334 381.047 124.21 373.38 129.881C365.714 135.552 354.529 138.388 339.827 138.388C324.389 138.388 312.417 134.817 303.91 127.676C295.404 120.43 291.151 109.508 291.151 94.91C291.151 80.6275 295.299 69.8105 303.595 62.4592C311.892 55.1079 323.339 51.4323 337.936 51.4323ZM339.197 71.4383C329.325 71.4383 323.811 76.1117 322.656 85.4583H353.217C353.217 81.1526 351.956 77.7394 349.436 75.219C347.021 72.6986 343.607 71.4383 339.197 71.4383Z" fill="black"/>
<path d="M450.568 51.2748C452.983 51.2748 455.136 51.5898 457.026 52.2199C458.917 52.745 459.862 53.0601 459.862 53.1651V79.4723H449.78C443.269 79.4723 438.543 81.1526 435.602 84.5131C432.767 87.8737 431.349 92.8621 431.349 99.4783V136.497H400.001V53.3226H425.678L427.726 65.9249C429.616 61.094 432.609 57.4709 436.705 55.0554C440.801 52.535 445.422 51.2748 450.568 51.2748Z" fill="black"/>
<path d="M535.182 51.4323C544.844 51.4323 552.09 54.1103 556.921 59.4662C561.752 64.8222 564.167 72.541 564.167 82.6228V136.497H532.819V86.4035C532.819 82.8329 531.874 79.9973 529.984 77.897C528.199 75.6916 525.626 74.5889 522.265 74.5889C518.379 74.5889 515.229 75.8491 512.813 78.3696C510.398 80.89 509.19 83.9881 509.19 87.6637V136.497H477.842V53.3226H503.519L505.567 65.9249C508.823 61.5141 513.076 57.9959 518.327 55.3705C523.683 52.745 529.301 51.4323 535.182 51.4323Z" fill="black"/>
<path d="M624.027 51.4323C636.734 51.4323 647.078 53.5852 655.06 57.8909C663.041 62.0917 667.032 68.9704 667.032 78.5271V110.978C667.032 112.763 667.452 114.233 668.292 115.389C669.132 116.544 670.393 117.121 672.073 117.121H677.744V135.237C677.429 135.447 676.589 135.815 675.223 136.34C673.963 136.76 672.125 137.18 669.71 137.6C667.295 138.125 664.512 138.388 661.361 138.388C655.27 138.388 650.229 137.495 646.238 135.71C642.353 133.819 639.675 131.246 638.204 127.991C634.214 131.141 629.75 133.662 624.814 135.552C619.879 137.443 614.103 138.388 607.486 138.388C587.953 138.388 578.186 130.616 578.186 115.074C578.186 106.987 580.339 100.844 584.645 96.6428C589.056 92.337 595.357 89.3965 603.548 87.8212C611.74 86.246 622.452 85.4583 635.684 85.4583V81.3626C635.684 78.107 634.529 75.6391 632.218 73.9588C630.013 72.2785 627.125 71.4383 623.554 71.4383C620.299 71.4383 617.463 72.0159 615.048 73.1711C612.737 74.3263 611.582 76.1642 611.582 78.6846V79.3147H580.707C580.602 78.7896 580.549 78.0545 580.549 77.1093C580.549 69.2329 584.277 62.9843 591.734 58.3635C599.295 53.7427 610.059 51.4323 624.027 51.4323ZM635.684 100.266C626.757 100.266 620.141 101.264 615.835 103.259C611.635 105.149 609.534 107.722 609.534 110.978C609.534 116.229 613.105 118.854 620.246 118.854C624.342 118.854 627.913 117.752 630.958 115.546C634.109 113.341 635.684 110.61 635.684 107.355V100.266Z" fill="black"/>
<path d="M745.952 53.3226H782.499L751.781 86.8761L783.286 136.497H747.685L730.199 107.985L719.33 118.539V136.497H687.982V22.1321H719.33V85.1433L745.952 53.3226Z" fill="black"/>
<path d="M245.294 159.391H280.108V240.046H335.715V267.771H245.294V159.391Z" fill="black"/>
<path d="M368.165 174.829V153.563H399.513V174.829H368.165ZM368.165 267.771V184.596H399.513V267.771H368.165Z" fill="black"/>
<path d="M495.763 182.706C505.425 182.706 512.671 185.384 517.502 190.74C522.333 196.095 524.749 203.814 524.749 213.896V267.771H493.401V217.677C493.401 214.106 492.455 211.271 490.565 209.17C488.78 206.965 486.207 205.862 482.846 205.862C478.96 205.862 475.81 207.122 473.395 209.643C470.979 212.163 469.771 215.261 469.771 218.937V267.771H438.423V184.596H464.1L466.148 197.198C469.404 192.787 473.657 189.269 478.908 186.644C484.264 184.018 489.882 182.706 495.763 182.706Z" fill="black"/>
<path d="M622.73 267.771L620.682 255.168C617.426 259.684 613.12 263.255 607.765 265.88C602.514 268.401 596.948 269.661 591.067 269.661C581.405 269.661 574.159 266.983 569.328 261.627C564.497 256.271 562.081 248.552 562.081 238.47V184.596H593.43V234.69C593.43 238.26 594.322 241.148 596.108 243.354C597.998 245.454 600.623 246.504 603.984 246.504C607.87 246.504 611.02 245.244 613.436 242.724C615.851 240.203 617.059 237.105 617.059 233.43V184.596H648.407V267.771H622.73Z" fill="black"/>
<path d="M781.202 267.771H744.655L728.902 241.621H728.272L712.362 267.771H677.548L709.526 223.663L680.699 184.596H717.56L730.793 206.65H731.423L744.655 184.596H779.311L750.011 224.45L781.202 267.771Z" fill="black"/>
</svg>
